<mxfile host="app.diagrams.net" agent="Mozilla/5.0 (Windows NT 10.0; Win64; x64) AppleWebKit/537.36 (KHTML, like Gecko) Chrome/133.0.0.0 Safari/537.36" version="26.0.16">
  <diagram name="第 1 页" id="YE1NN4_8z4oJuWLOnsad">
    <mxGraphModel dx="1050" dy="618" grid="1" gridSize="10" guides="1" tooltips="1" connect="1" arrows="1" fold="1" page="1" pageScale="1" pageWidth="827" pageHeight="1169" math="0" shadow="0">
      <root>
        <mxCell id="0" />
        <mxCell id="1" parent="0" />
        <mxCell id="dhIxiub1bMwwNuxmZCeF-4" value="" style="edgeStyle=orthogonalEdgeStyle;rounded=0;orthogonalLoop=1;jettySize=auto;html=1;" edge="1" parent="1" source="dhIxiub1bMwwNuxmZCeF-1" target="dhIxiub1bMwwNuxmZCeF-3">
          <mxGeometry relative="1" as="geometry" />
        </mxCell>
        <mxCell id="dhIxiub1bMwwNuxmZCeF-1" value="FtPtnFtrPtnVer" style="rounded=0;whiteSpace=wrap;html=1;" vertex="1" parent="1">
          <mxGeometry x="650" y="550" width="120" height="60" as="geometry" />
        </mxCell>
        <mxCell id="dhIxiub1bMwwNuxmZCeF-2" value="阵列的特征层命令" style="text;html=1;align=center;verticalAlign=middle;whiteSpace=wrap;rounded=0;" vertex="1" parent="1">
          <mxGeometry x="640" y="510" width="130" height="30" as="geometry" />
        </mxCell>
        <mxCell id="dhIxiub1bMwwNuxmZCeF-7" value="" style="edgeStyle=orthogonalEdgeStyle;rounded=0;orthogonalLoop=1;jettySize=auto;html=1;" edge="1" parent="1" source="dhIxiub1bMwwNuxmZCeF-3" target="dhIxiub1bMwwNuxmZCeF-6">
          <mxGeometry relative="1" as="geometry" />
        </mxCell>
        <mxCell id="dhIxiub1bMwwNuxmZCeF-3" value="FtGrpPattern" style="whiteSpace=wrap;html=1;rounded=0;" vertex="1" parent="1">
          <mxGeometry x="850" y="550" width="120" height="60" as="geometry" />
        </mxCell>
        <mxCell id="dhIxiub1bMwwNuxmZCeF-6" value="InstantiateFtrInterleaved" style="whiteSpace=wrap;html=1;rounded=0;" vertex="1" parent="1">
          <mxGeometry x="1050" y="550" width="160" height="60" as="geometry" />
        </mxCell>
        <mxCell id="dhIxiub1bMwwNuxmZCeF-8" value="调用到了特征命令主动调用圆角的函数" style="rounded=0;whiteSpace=wrap;html=1;" vertex="1" parent="1">
          <mxGeometry x="645" y="730" width="120" height="60" as="geometry" />
        </mxCell>
        <mxCell id="dhIxiub1bMwwNuxmZCeF-9" value="&lt;span style=&quot;color: rgb(0, 0, 0); font-family: Helvetica; font-size: 12px; font-style: normal; font-variant-ligatures: normal; font-variant-caps: normal; font-weight: 400; letter-spacing: normal; orphans: 2; text-align: center; text-indent: 0px; text-transform: none; widows: 2; word-spacing: 0px; -webkit-text-stroke-width: 0px; white-space: normal; background-color: rgb(251, 251, 251); text-decoration-thickness: initial; text-decoration-style: initial; text-decoration-color: initial; display: inline !important; float: none;&quot;&gt;在过程中调用到了圆角。圆角失败&lt;/span&gt;" style="text;whiteSpace=wrap;html=1;" vertex="1" parent="1">
          <mxGeometry x="617" y="680" width="210" height="40" as="geometry" />
        </mxCell>
        <mxCell id="dhIxiub1bMwwNuxmZCeF-10" value="FilletChamferVarInfo::performEdgeFillet" style="whiteSpace=wrap;html=1;" vertex="1" parent="1">
          <mxGeometry x="870" y="730" width="300" height="60" as="geometry" />
        </mxCell>
        <mxCell id="dhIxiub1bMwwNuxmZCeF-11" value="AFCheckResults" style="text;html=1;align=center;verticalAlign=middle;resizable=0;points=[];autosize=1;strokeColor=none;fillColor=none;" vertex="1" parent="1">
          <mxGeometry x="945" y="888" width="110" height="30" as="geometry" />
        </mxCell>
        <mxCell id="dhIxiub1bMwwNuxmZCeF-12" value="尝试做三次圆角" style="text;html=1;align=center;verticalAlign=middle;whiteSpace=wrap;rounded=0;" vertex="1" parent="1">
          <mxGeometry x="980" y="690" width="60" height="30" as="geometry" />
        </mxCell>
      </root>
    </mxGraphModel>
  </diagram>
</mxfile>
